  0
SECTION
  2
HEADER
  9
$ACADVER
  1
AC1009
  9
$DWGCODEPAGE
  3
ansi_1252
  9
$INSBASE
 10
0.0
 20
0.0
 30
0.0
  9
$EXTMIN
 10
0.1304000000203356
 20
0.1230314980379736
 30
0.0
  9
$EXTMAX
 10
11.36959999997966
 20
4.126968501962026
 30
0.0
  9
$LIMMIN
 10
0.0
 20
0.0
  9
$LIMMAX
 10
12.0
 20
9.0
  9
$ORTHOMODE
 70
     0
  9
$REGENMODE
 70
     1
  9
$FILLMODE
 70
     1
  9
$QTEXTMODE
 70
     0
  9
$MIRRTEXT
 70
     1
  9
$DRAGMODE
 70
     2
  9
$LTSCALE
 40
1.0
  9
$OSMODE
 70
    37
  9
$ATTMODE
 70
     1
  9
$TEXTSIZE
 40
0.2
  9
$TRACEWID
 40
0.05
  9
$TEXTSTYLE
  7
STANDARD
  9
$CLAYER
  8
0
  9
$CELTYPE
  6
BYLAYER
  9
$CECOLOR
 62
   256
  9
$DIMSCALE
 40
1.0
  9
$DIMASZ
 40
0.18
  9
$DIMEXO
 40
0.0625
  9
$DIMDLI
 40
0.38
  9
$DIMRND
 40
0.0
  9
$DIMDLE
 40
0.0
  9
$DIMEXE
 40
0.18
  9
$DIMTP
 40
0.0
  9
$DIMTM
 40
0.0
  9
$DIMTXT
 40
0.18
  9
$DIMCEN
 40
0.09
  9
$DIMTSZ
 40
0.0
  9
$DIMTOL
 70
     0
  9
$DIMLIM
 70
     0
  9
$DIMTIH
 70
     1
  9
$DIMTOH
 70
     1
  9
$DIMSE1
 70
     0
  9
$DIMSE2
 70
     0
  9
$DIMTAD
 70
     0
  9
$DIMZIN
 70
     0
  9
$DIMBLK
  1

  9
$DIMASO
 70
     1
  9
$DIMSHO
 70
     1
  9
$DIMPOST
  1

  9
$DIMAPOST
  1

  9
$DIMALT
 70
     0
  9
$DIMALTD
 70
     2
  9
$DIMALTF
 40
25.4
  9
$DIMLFAC
 40
1.0
  9
$DIMTOFL
 70
     0
  9
$DIMTVP
 40
0.0
  9
$DIMTIX
 70
     0
  9
$DIMSOXD
 70
     0
  9
$DIMSAH
 70
     0
  9
$DIMBLK1
  1

  9
$DIMBLK2
  1

  9
$DIMSTYLE
  2
STANDARD
  9
$DIMCLRD
 70
     0
  9
$DIMCLRE
 70
     0
  9
$DIMCLRT
 70
     0
  9
$DIMTFAC
 40
1.0
  9
$DIMGAP
 40
0.09
  9
$LUNITS
 70
     2
  9
$LUPREC
 70
     4
  9
$SKETCHINC
 40
0.1
  9
$FILLETRAD
 40
0.5
  9
$AUNITS
 70
     0
  9
$AUPREC
 70
     0
  9
$MENU
  1
.
  9
$ELEVATION
 40
0.0
  9
$PELEVATION
 40
0.0
  9
$THICKNESS
 40
0.0
  9
$LIMCHECK
 70
     0
  9
$CHAMFERA
 40
0.0
  9
$CHAMFERB
 40
0.0
  9
$SKPOLY
 70
     0
  9
$TDCREATE
 40
2454910.5
  9
$TDUPDATE
 40
2457254.355092928
  9
$TDINDWG
 40
0.0000000116
  9
$TDUSRTIMER
 40
0.0000000116
  9
$USRTIMER
 70
     1
  9
$ANGBASE
 50
0.0
  9
$ANGDIR
 70
     0
  9
$PDMODE
 70
     0
  9
$PDSIZE
 40
0.0
  9
$PLINEWID
 40
0.0
  9
$COORDS
 70
     1
  9
$SPLFRAME
 70
     0
  9
$SPLINETYPE
 70
     6
  9
$SPLINESEGS
 70
     8
  9
$ATTDIA
 70
     0
  9
$ATTREQ
 70
     1
  9
$HANDLING
 70
     1
  9
$HANDSEED
  5
234
  9
$SURFTAB1
 70
     6
  9
$SURFTAB2
 70
     6
  9
$SURFTYPE
 70
     6
  9
$SURFU
 70
     6
  9
$SURFV
 70
     6
  9
$UCSNAME
  2

  9
$UCSORG
 10
0.0
 20
0.0
 30
0.0
  9
$UCSXDIR
 10
1.0
 20
0.0
 30
0.0
  9
$UCSYDIR
 10
0.0
 20
1.0
 30
0.0
  9
$PUCSNAME
  2

  9
$PUCSORG
 10
0.0
 20
0.0
 30
0.0
  9
$PUCSXDIR
 10
1.0
 20
0.0
 30
0.0
  9
$PUCSYDIR
 10
0.0
 20
1.0
 30
0.0
  9
$USERI1
 70
     0
  9
$USERI2
 70
     0
  9
$USERI3
 70
     0
  9
$USERI4
 70
     0
  9
$USERI5
 70
     0
  9
$USERR1
 40
0.0
  9
$USERR2
 40
0.0
  9
$USERR3
 40
0.0
  9
$USERR4
 40
0.0
  9
$USERR5
 40
0.0
  9
$WORLDVIEW
 70
     1
  9
$SHADEDGE
 70
     3
  9
$SHADEDIF
 70
    70
  9
$TILEMODE
 70
     1
  9
$MAXACTVP
 70
    64
  9
$PLIMCHECK
 70
     0
  9
$PEXTMIN
 10
1.000000000000000E+20
 20
1.000000000000000E+20
 30
1.000000000000000E+20
  9
$PEXTMAX
 10
-1.000000000000000E+20
 20
-1.000000000000000E+20
 30
-1.000000000000000E+20
  9
$PLIMMIN
 10
0.0
 20
0.0
  9
$PLIMMAX
 10
12.0
 20
9.0
  9
$UNITMODE
 70
     0
  9
$VISRETAIN
 70
     1
  9
$PLINEGEN
 70
     0
  9
$PSLTSCALE
 70
     1
  0
ENDSEC
  0
SECTION
  2
TABLES
  0
TABLE
  2
VPORT
 70
     1
  0
VPORT
  2
*ACTIVE
 70
     0
 10
0.0
 20
0.0
 11
1.0
 21
1.0
 12
10.42990654205607
 22
4.5
 13
0.0
 23
0.0
 14
0.5
 24
0.5
 15
0.5
 25
0.5
 16
0.0
 26
0.0
 36
1.0
 17
0.0
 27
0.0
 37
0.0
 40
9.0
 41
1.972972972850329
 42
50.0
 43
0.0
 44
0.0
 50
0.0
 51
0.0
 71
     0
 72
   100
 73
     1
 74
     3
 75
     0
 76
     0
 77
     0
 78
     0
  0
ENDTAB
  0
TABLE
  2
LTYPE
 70
     2
  0
LTYPE
  2
CONTINUOUS
 70
     0
  3
Solid line
 72
    65
 73
     0
 40
0.0
  0
LTYPE
  2
CONTINUOUS2
 70
     0
  3
Solid Line
 72
    65
 73
     0
 40
0.0
  0
ENDTAB
  0
TABLE
  2
LAYER
 70
     2
  0
LAYER
  2
0
 70
     0
 62
     7
  6
CONTINUOUS
  0
LAYER
  2
NEW_HOLES
 70
     0
 62
    18
  6
CONTINUOUS
  0
ENDTAB
  0
TABLE
  2
STYLE
 70
     1
  0
STYLE
  2
STANDARD
 70
     0
 40
0.0
 41
1.0
 50
0.0
 71
     0
 42
0.2
  3
txt
  4

  0
ENDTAB
  0
TABLE
  2
VIEW
 70
     0
  0
ENDTAB
  0
TABLE
  2
UCS
 70
     0
  0
ENDTAB
  0
TABLE
  2
APPID
 70
     1
  0
APPID
  2
ACAD
 70
     0
  0
ENDTAB
  0
TABLE
  2
DIMSTYLE
 70
     1
  0
DIMSTYLE
  2
STANDARD
 70
     0
  3

  4

  5

  6

  7

 40
1.0
 41
0.18
 42
0.0625
 43
0.38
 44
0.18
 45
0.0
 46
0.0
 47
0.0
 48
0.0
140
0.18
141
0.09
142
0.0
143
25.4
144
1.0
145
0.0
146
1.0
147
0.09
 71
     0
 72
     0
 73
     1
 74
     1
 75
     0
 76
     0
 77
     0
 78
     0
170
     0
171
     2
172
     0
173
     0
174
     0
175
     0
176
     0
177
     0
178
     0
  0
ENDTAB
  0
ENDSEC
  0
SECTION
  2
BLOCKS
  0
BLOCK
  8
0
  2
$MODEL_SPACE
 70
     0
 10
0.0
 20
0.0
 30
0.0
  3
$MODEL_SPACE
  1

  0
ENDBLK
  5
21
  8
0
  0
BLOCK
 67
     1
  8
0
  2
$PAPER_SPACE
 70
     0
 10
0.0
 20
0.0
 30
0.0
  3
$PAPER_SPACE
  1

  0
ENDBLK
  5
1D
 67
     1
  8
0
  0
ENDSEC
  0
SECTION
  2
ENTITIES
  0
POLYLINE
  5
6C
  8
NEW_HOLES
 66
     1
 10
0.0
 20
0.0
 30
0.0
 70
     1
  0
VERTEX
  5
AE
  8
NEW_HOLES
 10
3.567900000007611
 20
1.123031501970995
 30
0.0
  0
VERTEX
  5
AF
  8
NEW_HOLES
 10
4.182100000007611
 20
1.123031501970995
 30
0.0
  0
VERTEX
  5
B0
  8
NEW_HOLES
 10
4.182100000007611
 20
1.626968501970994
 30
0.0
  0
VERTEX
  5
B1
  8
NEW_HOLES
 10
3.567900000007611
 20
1.626968501970994
 30
0.0
  0
SEQEND
  5
1F9
  8
NEW_HOLES
  0
POLYLINE
  5
6D
  8
NEW_HOLES
 66
     1
 10
0.0
 20
0.0
 30
0.0
 70
     1
  0
VERTEX
  5
B2
  8
NEW_HOLES
 10
2.817900000010598
 20
1.123031501970962
 30
0.0
  0
VERTEX
  5
B3
  8
NEW_HOLES
 10
3.432100000010597
 20
1.123031501970962
 30
0.0
  0
VERTEX
  5
B4
  8
NEW_HOLES
 10
3.432100000010597
 20
1.626968501970961
 30
0.0
  0
VERTEX
  5
B5
  8
NEW_HOLES
 10
2.817900000010598
 20
1.626968501970961
 30
0.0
  0
SEQEND
  5
1FA
  8
NEW_HOLES
  0
POLYLINE
  5
6E
  8
NEW_HOLES
 66
     1
 10
0.0
 20
0.0
 30
0.0
 70
     1
  0
VERTEX
  5
B6
  8
NEW_HOLES
 10
2.067900000013592
 20
1.123031501970964
 30
0.0
  0
VERTEX
  5
B7
  8
NEW_HOLES
 10
2.682100000013592
 20
1.123031501970964
 30
0.0
  0
VERTEX
  5
B8
  8
NEW_HOLES
 10
2.682100000013592
 20
1.626968501970963
 30
0.0
  0
VERTEX
  5
B9
  8
NEW_HOLES
 10
2.067900000013592
 20
1.626968501970963
 30
0.0
  0
SEQEND
  5
1FB
  8
NEW_HOLES
  0
POLYLINE
  5
6F
  8
NEW_HOLES
 66
     1
 10
0.0
 20
0.0
 30
0.0
 70
     1
  0
VERTEX
  5
BA
  8
NEW_HOLES
 10
5.817899999998623
 20
1.123031501970996
 30
0.0
  0
VERTEX
  5
BB
  8
NEW_HOLES
 10
6.432099999998623
 20
1.123031501970996
 30
0.0
  0
VERTEX
  5
BC
  8
NEW_HOLES
 10
6.432099999998623
 20
1.626968501970996
 30
0.0
  0
VERTEX
  5
BD
  8
NEW_HOLES
 10
5.817899999998623
 20
1.626968501970996
 30
0.0
  0
SEQEND
  5
1FC
  8
NEW_HOLES
  0
POLYLINE
  5
70
  8
NEW_HOLES
 66
     1
 10
0.0
 20
0.0
 30
0.0
 70
     1
  0
VERTEX
  5
BE
  8
NEW_HOLES
 10
5.06790000000161
 20
1.123031501970963
 30
0.0
  0
VERTEX
  5
BF
  8
NEW_HOLES
 10
5.68210000000161
 20
1.123031501970963
 30
0.0
  0
VERTEX
  5
C0
  8
NEW_HOLES
 10
5.68210000000161
 20
1.626968501970963
 30
0.0
  0
VERTEX
  5
C1
  8
NEW_HOLES
 10
5.06790000000161
 20
1.626968501970963
 30
0.0
  0
SEQEND
  5
1FD
  8
NEW_HOLES
  0
POLYLINE
  5
71
  8
NEW_HOLES
 66
     1
 10
0.0
 20
0.0
 30
0.0
 70
     1
  0
VERTEX
  5
C2
  8
NEW_HOLES
 10
4.317900000004604
 20
1.123031501970965
 30
0.0
  0
VERTEX
  5
C3
  8
NEW_HOLES
 10
4.932100000004604
 20
1.123031501970965
 30
0.0
  0
VERTEX
  5
C4
  8
NEW_HOLES
 10
4.932100000004604
 20
1.626968501970965
 30
0.0
  0
VERTEX
  5
C5
  8
NEW_HOLES
 10
4.317900000004604
 20
1.626968501970965
 30
0.0
  0
SEQEND
  5
1FE
  8
NEW_HOLES
  0
POLYLINE
  5
72
  8
NEW_HOLES
 66
     1
 10
0.0
 20
0.0
 30
0.0
 70
     1
  0
VERTEX
  5
C6
  8
NEW_HOLES
 10
8.067899999989589
 20
1.123031501970992
 30
0.0
  0
VERTEX
  5
C7
  8
NEW_HOLES
 10
8.682099999989589
 20
1.123031501970992
 30
0.0
  0
VERTEX
  5
C8
  8
NEW_HOLES
 10
8.682099999989589
 20
1.626968501970991
 30
0.0
  0
VERTEX
  5
C9
  8
NEW_HOLES
 10
8.067899999989589
 20
1.626968501970991
 30
0.0
  0
SEQEND
  5
1FF
  8
NEW_HOLES
  0
POLYLINE
  5
73
  8
NEW_HOLES
 66
     1
 10
0.0
 20
0.0
 30
0.0
 70
     1
  0
VERTEX
  5
CA
  8
NEW_HOLES
 10
7.317899999992576
 20
1.123031501970959
 30
0.0
  0
VERTEX
  5
CB
  8
NEW_HOLES
 10
7.932099999992577
 20
1.123031501970959
 30
0.0
  0
VERTEX
  5
CC
  8
NEW_HOLES
 10
7.932099999992577
 20
1.626968501970958
 30
0.0
  0
VERTEX
  5
CD
  8
NEW_HOLES
 10
7.317899999992576
 20
1.626968501970958
 30
0.0
  0
SEQEND
  5
200
  8
NEW_HOLES
  0
POLYLINE
  5
74
  8
NEW_HOLES
 66
     1
 10
0.0
 20
0.0
 30
0.0
 70
     1
  0
VERTEX
  5
CE
  8
NEW_HOLES
 10
6.567899999995571
 20
1.12303150197096
 30
0.0
  0
VERTEX
  5
CF
  8
NEW_HOLES
 10
7.182099999995572
 20
1.12303150197096
 30
0.0
  0
VERTEX
  5
D0
  8
NEW_HOLES
 10
7.182099999995572
 20
1.62696850197096
 30
0.0
  0
VERTEX
  5
D1
  8
NEW_HOLES
 10
6.567899999995571
 20
1.62696850197096
 30
0.0
  0
SEQEND
  5
201
  8
NEW_HOLES
  0
POLYLINE
  5
75
  8
NEW_HOLES
 66
     1
 10
0.0
 20
0.0
 30
0.0
 70
     1
  0
VERTEX
  5
D2
  8
NEW_HOLES
 10
8.817899999986516
 20
1.123031501970945
 30
0.0
  0
VERTEX
  5
D3
  8
NEW_HOLES
 10
9.432099999986516
 20
1.123031501970945
 30
0.0
  0
VERTEX
  5
D4
  8
NEW_HOLES
 10
9.432099999986516
 20
1.626968501970945
 30
0.0
  0
VERTEX
  5
D5
  8
NEW_HOLES
 10
8.817899999986516
 20
1.626968501970945
 30
0.0
  0
SEQEND
  5
202
  8
NEW_HOLES
  0
POLYLINE
  5
76
  8
NEW_HOLES
 66
     1
 10
0.0
 20
0.0
 30
0.0
 70
     1
  0
VERTEX
  5
D6
  8
NEW_HOLES
 10
10.03666338580972
 20
1.123031498034973
 30
0.0
  0
VERTEX
  5
D7
  8
NEW_HOLES
 10
10.65086338580972
 20
1.123031498034973
 30
0.0
  0
VERTEX
  5
D8
  8
NEW_HOLES
 10
10.65086338580972
 20
1.626968498034973
 30
0.0
  0
VERTEX
  5
D9
  8
NEW_HOLES
 10
10.03666338580972
 20
1.626968498034973
 30
0.0
  0
SEQEND
  5
203
  8
NEW_HOLES
  0
POLYLINE
  5
77
  8
NEW_HOLES
 66
     1
 10
0.0
 20
0.0
 30
0.0
 70
     1
  0
VERTEX
  5
DA
  8
NEW_HOLES
 10
0.8491633858464702
 20
1.123031498034973
 30
0.0
  0
VERTEX
  5
DB
  8
NEW_HOLES
 10
1.463363385846471
 20
1.123031498034973
 30
0.0
  0
VERTEX
  5
DC
  8
NEW_HOLES
 10
1.463363385846471
 20
1.626968498034973
 30
0.0
  0
VERTEX
  5
DD
  8
NEW_HOLES
 10
0.8491633858464702
 20
1.626968498034973
 30
0.0
  0
SEQEND
  5
204
  8
NEW_HOLES
  0
POLYLINE
  5
78
  8
NEW_HOLES
 66
     1
 10
0.0
 20
0.0
 30
0.0
 70
     1
  0
VERTEX
  5
DE
  8
NEW_HOLES
 10
3.192900000009093
 20
1.873031501967978
 30
0.0
  0
VERTEX
  5
DF
  8
NEW_HOLES
 10
3.807100000009093
 20
1.873031501967978
 30
0.0
  0
VERTEX
  5
E0
  8
NEW_HOLES
 10
3.807100000009093
 20
2.376968501967977
 30
0.0
  0
VERTEX
  5
E1
  8
NEW_HOLES
 10
3.192900000009093
 20
2.376968501967977
 30
0.0
  0
SEQEND
  5
205
  8
NEW_HOLES
  0
POLYLINE
  5
79
  8
NEW_HOLES
 66
     1
 10
0.0
 20
0.0
 30
0.0
 70
     1
  0
VERTEX
  5
E2
  8
NEW_HOLES
 10
2.44290000001208
 20
1.873031501967945
 30
0.0
  0
VERTEX
  5
E3
  8
NEW_HOLES
 10
3.057100000012079
 20
1.873031501967945
 30
0.0
  0
VERTEX
  5
E4
  8
NEW_HOLES
 10
3.057100000012079
 20
2.376968501967944
 30
0.0
  0
VERTEX
  5
E5
  8
NEW_HOLES
 10
2.44290000001208
 20
2.376968501967944
 30
0.0
  0
SEQEND
  5
206
  8
NEW_HOLES
  0
POLYLINE
  5
7A
  8
NEW_HOLES
 66
     1
 10
0.0
 20
0.0
 30
0.0
 70
     1
  0
VERTEX
  5
E6
  8
NEW_HOLES
 10
1.692900000015074
 20
1.873031501967946
 30
0.0
  0
VERTEX
  5
E7
  8
NEW_HOLES
 10
2.307100000015074
 20
1.873031501967946
 30
0.0
  0
VERTEX
  5
E8
  8
NEW_HOLES
 10
2.307100000015074
 20
2.376968501967946
 30
0.0
  0
VERTEX
  5
E9
  8
NEW_HOLES
 10
1.692900000015074
 20
2.376968501967946
 30
0.0
  0
SEQEND
  5
207
  8
NEW_HOLES
  0
POLYLINE
  5
7B
  8
NEW_HOLES
 66
     1
 10
0.0
 20
0.0
 30
0.0
 70
     1
  0
VERTEX
  5
EA
  8
NEW_HOLES
 10
5.44290000000014
 20
1.873031501968015
 30
0.0
  0
VERTEX
  5
EB
  8
NEW_HOLES
 10
6.05710000000014
 20
1.873031501968015
 30
0.0
  0
VERTEX
  5
EC
  8
NEW_HOLES
 10
6.05710000000014
 20
2.376968501968014
 30
0.0
  0
VERTEX
  5
ED
  8
NEW_HOLES
 10
5.44290000000014
 20
2.376968501968014
 30
0.0
  0
SEQEND
  5
208
  8
NEW_HOLES
  0
POLYLINE
  5
7C
  8
NEW_HOLES
 66
     1
 10
0.0
 20
0.0
 30
0.0
 70
     1
  0
VERTEX
  5
EE
  8
NEW_HOLES
 10
4.692900000003127
 20
1.873031501967982
 30
0.0
  0
VERTEX
  5
EF
  8
NEW_HOLES
 10
5.307100000003127
 20
1.873031501967982
 30
0.0
  0
VERTEX
  5
F0
  8
NEW_HOLES
 10
5.307100000003127
 20
2.376968501967982
 30
0.0
  0
VERTEX
  5
F1
  8
NEW_HOLES
 10
4.692900000003127
 20
2.376968501967982
 30
0.0
  0
SEQEND
  5
209
  8
NEW_HOLES
  0
POLYLINE
  5
7D
  8
NEW_HOLES
 66
     1
 10
0.0
 20
0.0
 30
0.0
 70
     1
  0
VERTEX
  5
F2
  8
NEW_HOLES
 10
3.942900000006121
 20
1.873031501967984
 30
0.0
  0
VERTEX
  5
F3
  8
NEW_HOLES
 10
4.557100000006121
 20
1.873031501967984
 30
0.0
  0
VERTEX
  5
F4
  8
NEW_HOLES
 10
4.557100000006121
 20
2.376968501967983
 30
0.0
  0
VERTEX
  5
F5
  8
NEW_HOLES
 10
3.942900000006121
 20
2.376968501967983
 30
0.0
  0
SEQEND
  5
20A
  8
NEW_HOLES
  0
POLYLINE
  5
7E
  8
NEW_HOLES
 66
     1
 10
0.0
 20
0.0
 30
0.0
 70
     1
  0
VERTEX
  5
F6
  8
NEW_HOLES
 10
7.69289999999109
 20
1.87303150196799
 30
0.0
  0
VERTEX
  5
F7
  8
NEW_HOLES
 10
8.30709999999109
 20
1.87303150196799
 30
0.0
  0
VERTEX
  5
F8
  8
NEW_HOLES
 10
8.30709999999109
 20
2.37696850196799
 30
0.0
  0
VERTEX
  5
F9
  8
NEW_HOLES
 10
7.69289999999109
 20
2.37696850196799
 30
0.0
  0
SEQEND
  5
20B
  8
NEW_HOLES
  0
POLYLINE
  5
7F
  8
NEW_HOLES
 66
     1
 10
0.0
 20
0.0
 30
0.0
 70
     1
  0
VERTEX
  5
FA
  8
NEW_HOLES
 10
6.942899999994077
 20
1.873031501967957
 30
0.0
  0
VERTEX
  5
FB
  8
NEW_HOLES
 10
7.557099999994078
 20
1.873031501967957
 30
0.0
  0
VERTEX
  5
FC
  8
NEW_HOLES
 10
7.557099999994078
 20
2.376968501967957
 30
0.0
  0
VERTEX
  5
FD
  8
NEW_HOLES
 10
6.942899999994077
 20
2.376968501967957
 30
0.0
  0
SEQEND
  5
20C
  8
NEW_HOLES
  0
POLYLINE
  5
80
  8
NEW_HOLES
 66
     1
 10
0.0
 20
0.0
 30
0.0
 70
     1
  0
VERTEX
  5
FE
  8
NEW_HOLES
 10
6.192899999997072
 20
1.873031501967959
 30
0.0
  0
VERTEX
  5
FF
  8
NEW_HOLES
 10
6.807099999997073
 20
1.873031501967959
 30
0.0
  0
VERTEX
  5
100
  8
NEW_HOLES
 10
6.807099999997073
 20
2.376968501967959
 30
0.0
  0
VERTEX
  5
101
  8
NEW_HOLES
 10
6.192899999997072
 20
2.376968501967959
 30
0.0
  0
SEQEND
  5
20D
  8
NEW_HOLES
  0
POLYLINE
  5
81
  8
NEW_HOLES
 66
     1
 10
0.0
 20
0.0
 30
0.0
 70
     1
  0
VERTEX
  5
102
  8
NEW_HOLES
 10
10.22414999998096
 20
1.873031501967963
 30
0.0
  0
VERTEX
  5
103
  8
NEW_HOLES
 10
10.83834999998096
 20
1.873031501967963
 30
0.0
  0
VERTEX
  5
104
  8
NEW_HOLES
 10
10.83834999998096
 20
2.376968501967963
 30
0.0
  0
VERTEX
  5
105
  8
NEW_HOLES
 10
10.22414999998096
 20
2.376968501967963
 30
0.0
  0
SEQEND
  5
20E
  8
NEW_HOLES
  0
POLYLINE
  5
82
  8
NEW_HOLES
 66
     1
 10
0.0
 20
0.0
 30
0.0
 70
     1
  0
VERTEX
  5
106
  8
NEW_HOLES
 10
9.192899999985094
 20
1.873031501967963
 30
0.0
  0
VERTEX
  5
107
  8
NEW_HOLES
 10
9.807099999985095
 20
1.873031501967963
 30
0.0
  0
VERTEX
  5
108
  8
NEW_HOLES
 10
9.807099999985095
 20
2.376968501967963
 30
0.0
  0
VERTEX
  5
109
  8
NEW_HOLES
 10
9.192899999985094
 20
2.376968501967963
 30
0.0
  0
SEQEND
  5
20F
  8
NEW_HOLES
  0
POLYLINE
  5
83
  8
NEW_HOLES
 66
     1
 10
0.0
 20
0.0
 30
0.0
 70
     1
  0
VERTEX
  5
10A
  8
NEW_HOLES
 10
8.442899999988072
 20
1.873031501967959
 30
0.0
  0
VERTEX
  5
10B
  8
NEW_HOLES
 10
9.057099999988072
 20
1.873031501967959
 30
0.0
  0
VERTEX
  5
10C
  8
NEW_HOLES
 10
9.057099999988072
 20
2.376968501967959
 30
0.0
  0
VERTEX
  5
10D
  8
NEW_HOLES
 10
8.442899999988072
 20
2.376968501967959
 30
0.0
  0
SEQEND
  5
210
  8
NEW_HOLES
  0
POLYLINE
  5
84
  8
NEW_HOLES
 66
     1
 10
0.0
 20
0.0
 30
0.0
 70
     1
  0
VERTEX
  5
10E
  8
NEW_HOLES
 10
0.6616500000192147
 20
1.873031501967961
 30
0.0
  0
VERTEX
  5
10F
  8
NEW_HOLES
 10
1.275850000019215
 20
1.873031501967961
 30
0.0
  0
VERTEX
  5
110
  8
NEW_HOLES
 10
1.275850000019215
 20
2.376968501967961
 30
0.0
  0
VERTEX
  5
111
  8
NEW_HOLES
 10
0.6616500000192147
 20
2.376968501967961
 30
0.0
  0
SEQEND
  5
211
  8
NEW_HOLES
  0
POLYLINE
  5
85
  8
NEW_HOLES
 66
     1
 10
0.0
 20
0.0
 30
0.0
 70
     1
  0
VERTEX
  5
112
  8
NEW_HOLES
 10
3.005400000009867
 20
2.623031501965005
 30
0.0
  0
VERTEX
  5
113
  8
NEW_HOLES
 10
3.619600000009867
 20
2.623031501965005
 30
0.0
  0
VERTEX
  5
114
  8
NEW_HOLES
 10
3.619600000009867
 20
3.126968501965004
 30
0.0
  0
VERTEX
  5
115
  8
NEW_HOLES
 10
3.005400000009867
 20
3.126968501965004
 30
0.0
  0
SEQEND
  5
212
  8
NEW_HOLES
  0
POLYLINE
  5
86
  8
NEW_HOLES
 66
     1
 10
0.0
 20
0.0
 30
0.0
 70
     1
  0
VERTEX
  5
116
  8
NEW_HOLES
 10
2.255400000012854
 20
2.623031501964972
 30
0.0
  0
VERTEX
  5
117
  8
NEW_HOLES
 10
2.869600000012853
 20
2.623031501964972
 30
0.0
  0
VERTEX
  5
118
  8
NEW_HOLES
 10
2.869600000012853
 20
3.126968501964972
 30
0.0
  0
VERTEX
  5
119
  8
NEW_HOLES
 10
2.255400000012854
 20
3.126968501964972
 30
0.0
  0
SEQEND
  5
213
  8
NEW_HOLES
  0
POLYLINE
  5
87
  8
NEW_HOLES
 66
     1
 10
0.0
 20
0.0
 30
0.0
 70
     1
  0
VERTEX
  5
11A
  8
NEW_HOLES
 10
1.505400000015848
 20
2.623031501964974
 30
0.0
  0
VERTEX
  5
11B
  8
NEW_HOLES
 10
2.119600000015847
 20
2.623031501964974
 30
0.0
  0
VERTEX
  5
11C
  8
NEW_HOLES
 10
2.119600000015847
 20
3.126968501964973
 30
0.0
  0
VERTEX
  5
11D
  8
NEW_HOLES
 10
1.505400000015848
 20
3.126968501964973
 30
0.0
  0
SEQEND
  5
214
  8
NEW_HOLES
  0
POLYLINE
  5
88
  8
NEW_HOLES
 66
     1
 10
0.0
 20
0.0
 30
0.0
 70
     1
  0
VERTEX
  5
11E
  8
NEW_HOLES
 10
5.255400000000875
 20
2.623031501965007
 30
0.0
  0
VERTEX
  5
11F
  8
NEW_HOLES
 10
5.869600000000875
 20
2.623031501965007
 30
0.0
  0
VERTEX
  5
120
  8
NEW_HOLES
 10
5.869600000000875
 20
3.126968501965006
 30
0.0
  0
VERTEX
  5
121
  8
NEW_HOLES
 10
5.255400000000875
 20
3.126968501965006
 30
0.0
  0
SEQEND
  5
215
  8
NEW_HOLES
  0
POLYLINE
  5
89
  8
NEW_HOLES
 66
     1
 10
0.0
 20
0.0
 30
0.0
 70
     1
  0
VERTEX
  5
122
  8
NEW_HOLES
 10
4.505400000003862
 20
2.623031501964974
 30
0.0
  0
VERTEX
  5
123
  8
NEW_HOLES
 10
5.119600000003861
 20
2.623031501964974
 30
0.0
  0
VERTEX
  5
124
  8
NEW_HOLES
 10
5.119600000003861
 20
3.126968501964973
 30
0.0
  0
VERTEX
  5
125
  8
NEW_HOLES
 10
4.505400000003862
 20
3.126968501964973
 30
0.0
  0
SEQEND
  5
216
  8
NEW_HOLES
  0
POLYLINE
  5
8A
  8
NEW_HOLES
 66
     1
 10
0.0
 20
0.0
 30
0.0
 70
     1
  0
VERTEX
  5
126
  8
NEW_HOLES
 10
3.755400000006856
 20
2.623031501964975
 30
0.0
  0
VERTEX
  5
127
  8
NEW_HOLES
 10
4.369600000006856
 20
2.623031501964975
 30
0.0
  0
VERTEX
  5
128
  8
NEW_HOLES
 10
4.369600000006856
 20
3.126968501964975
 30
0.0
  0
VERTEX
  5
129
  8
NEW_HOLES
 10
3.755400000006856
 20
3.126968501964975
 30
0.0
  0
SEQEND
  5
217
  8
NEW_HOLES
  0
POLYLINE
  5
8B
  8
NEW_HOLES
 66
     1
 10
0.0
 20
0.0
 30
0.0
 70
     1
  0
VERTEX
  5
12A
  8
NEW_HOLES
 10
7.505399999991901
 20
2.623031501965015
 30
0.0
  0
VERTEX
  5
12B
  8
NEW_HOLES
 10
8.119599999991902
 20
2.623031501965015
 30
0.0
  0
VERTEX
  5
12C
  8
NEW_HOLES
 10
8.119599999991902
 20
3.126968501965015
 30
0.0
  0
VERTEX
  5
12D
  8
NEW_HOLES
 10
7.505399999991901
 20
3.126968501965015
 30
0.0
  0
SEQEND
  5
218
  8
NEW_HOLES
  0
POLYLINE
  5
8C
  8
NEW_HOLES
 66
     1
 10
0.0
 20
0.0
 30
0.0
 70
     1
  0
VERTEX
  5
12E
  8
NEW_HOLES
 10
6.755399999994889
 20
2.623031501964983
 30
0.0
  0
VERTEX
  5
12F
  8
NEW_HOLES
 10
7.36959999999489
 20
2.623031501964983
 30
0.0
  0
VERTEX
  5
130
  8
NEW_HOLES
 10
7.36959999999489
 20
3.126968501964982
 30
0.0
  0
VERTEX
  5
131
  8
NEW_HOLES
 10
6.755399999994889
 20
3.126968501964982
 30
0.0
  0
SEQEND
  5
219
  8
NEW_HOLES
  0
POLYLINE
  5
8D
  8
NEW_HOLES
 66
     1
 10
0.0
 20
0.0
 30
0.0
 70
     1
  0
VERTEX
  5
132
  8
NEW_HOLES
 10
6.005399999997883
 20
2.623031501964984
 30
0.0
  0
VERTEX
  5
133
  8
NEW_HOLES
 10
6.619599999997885
 20
2.623031501964984
 30
0.0
  0
VERTEX
  5
134
  8
NEW_HOLES
 10
6.619599999997885
 20
3.126968501964984
 30
0.0
  0
VERTEX
  5
135
  8
NEW_HOLES
 10
6.005399999997883
 20
3.126968501964984
 30
0.0
  0
SEQEND
  5
21A
  8
NEW_HOLES
  0
POLYLINE
  5
8E
  8
NEW_HOLES
 66
     1
 10
0.0
 20
0.0
 30
0.0
 70
     1
  0
VERTEX
  5
136
  8
NEW_HOLES
 10
9.755399999982759
 20
2.623031501964959
 30
0.0
  0
VERTEX
  5
137
  8
NEW_HOLES
 10
10.36959999998276
 20
2.623031501964959
 30
0.0
  0
VERTEX
  5
138
  8
NEW_HOLES
 10
10.36959999998276
 20
3.126968501964958
 30
0.0
  0
VERTEX
  5
139
  8
NEW_HOLES
 10
9.755399999982759
 20
3.126968501964958
 30
0.0
  0
SEQEND
  5
21B
  8
NEW_HOLES
  0
POLYLINE
  5
8F
  8
NEW_HOLES
 66
     1
 10
0.0
 20
0.0
 30
0.0
 70
     1
  0
VERTEX
  5
13A
  8
NEW_HOLES
 10
9.005399999985746
 20
2.623031501964926
 30
0.0
  0
VERTEX
  5
13B
  8
NEW_HOLES
 10
9.619599999985747
 20
2.623031501964926
 30
0.0
  0
VERTEX
  5
13C
  8
NEW_HOLES
 10
9.619599999985747
 20
3.126968501964925
 30
0.0
  0
VERTEX
  5
13D
  8
NEW_HOLES
 10
9.005399999985746
 20
3.126968501964925
 30
0.0
  0
SEQEND
  5
21C
  8
NEW_HOLES
  0
POLYLINE
  5
90
  8
NEW_HOLES
 66
     1
 10
0.0
 20
0.0
 30
0.0
 70
     1
  0
VERTEX
  5
13E
  8
NEW_HOLES
 10
8.255399999988741
 20
2.623031501964928
 30
0.0
  0
VERTEX
  5
13F
  8
NEW_HOLES
 10
8.869599999988742
 20
2.623031501964928
 30
0.0
  0
VERTEX
  5
140
  8
NEW_HOLES
 10
8.869599999988742
 20
3.126968501964927
 30
0.0
  0
VERTEX
  5
141
  8
NEW_HOLES
 10
8.255399999988741
 20
3.126968501964927
 30
0.0
  0
SEQEND
  5
21D
  8
NEW_HOLES
  0
POLYLINE
  5
91
  8
NEW_HOLES
 66
     1
 10
0.0
 20
0.0
 30
0.0
 70
     1
  0
VERTEX
  5
142
  8
NEW_HOLES
 10
10.50539999997966
 20
2.6230315019649
 30
0.0
  0
VERTEX
  5
143
  8
NEW_HOLES
 10
11.11959999997966
 20
2.6230315019649
 30
0.0
  0
VERTEX
  5
144
  8
NEW_HOLES
 10
11.11959999997966
 20
3.1269685019649
 30
0.0
  0
VERTEX
  5
145
  8
NEW_HOLES
 10
10.50539999997966
 20
3.1269685019649
 30
0.0
  0
SEQEND
  5
21E
  8
NEW_HOLES
  0
POLYLINE
  5
92
  8
NEW_HOLES
 66
     1
 10
0.0
 20
0.0
 30
0.0
 70
     1
  0
VERTEX
  5
146
  8
NEW_HOLES
 10
0.5679000000195966
 20
2.623031501964977
 30
0.0
  0
VERTEX
  5
147
  8
NEW_HOLES
 10
1.182100000019597
 20
2.623031501964977
 30
0.0
  0
VERTEX
  5
148
  8
NEW_HOLES
 10
1.182100000019597
 20
3.126968501964978
 30
0.0
  0
VERTEX
  5
149
  8
NEW_HOLES
 10
0.5679000000195966
 20
3.126968501964978
 30
0.0
  0
SEQEND
  5
21F
  8
NEW_HOLES
  0
POLYLINE
  5
93
  8
NEW_HOLES
 66
     1
 10
0.0
 20
0.0
 30
0.0
 70
     1
  0
VERTEX
  5
14A
  8
NEW_HOLES
 10
0.3804000000203356
 20
3.373031501961958
 30
0.0
  0
VERTEX
  5
14B
  8
NEW_HOLES
 10
0.9946000000203354
 20
3.373031501961958
 30
0.0
  0
VERTEX
  5
14C
  8
NEW_HOLES
 10
0.9946000000203354
 20
3.876968501961958
 30
0.0
  0
VERTEX
  5
14D
  8
NEW_HOLES
 10
0.3804000000203356
 20
3.876968501961958
 30
0.0
  0
SEQEND
  5
220
  8
NEW_HOLES
  0
POLYLINE
  5
94
  8
NEW_HOLES
 66
     1
 10
0.0
 20
0.0
 30
0.0
 70
     1
  0
VERTEX
  5
14E
  8
NEW_HOLES
 10
1.130400000017341
 20
3.373031501961957
 30
0.0
  0
VERTEX
  5
14F
  8
NEW_HOLES
 10
1.744600000017341
 20
3.373031501961957
 30
0.0
  0
VERTEX
  5
150
  8
NEW_HOLES
 10
1.744600000017341
 20
3.876968501961956
 30
0.0
  0
VERTEX
  5
151
  8
NEW_HOLES
 10
1.130400000017341
 20
3.876968501961956
 30
0.0
  0
SEQEND
  5
221
  8
NEW_HOLES
  0
POLYLINE
  5
95
  8
NEW_HOLES
 66
     1
 10
0.0
 20
0.0
 30
0.0
 70
     1
  0
VERTEX
  5
152
  8
NEW_HOLES
 10
1.880400000014355
 20
3.373031501961989
 30
0.0
  0
VERTEX
  5
153
  8
NEW_HOLES
 10
2.494600000014355
 20
3.373031501961989
 30
0.0
  0
VERTEX
  5
154
  8
NEW_HOLES
 10
2.494600000014355
 20
3.876968501961989
 30
0.0
  0
VERTEX
  5
155
  8
NEW_HOLES
 10
1.880400000014355
 20
3.876968501961989
 30
0.0
  0
SEQEND
  5
222
  8
NEW_HOLES
  0
POLYLINE
  5
96
  8
NEW_HOLES
 66
     1
 10
0.0
 20
0.0
 30
0.0
 70
     1
  0
VERTEX
  5
156
  8
NEW_HOLES
 10
4.130400000005347
 20
3.373031501961983
 30
0.0
  0
VERTEX
  5
157
  8
NEW_HOLES
 10
4.744600000005347
 20
3.373031501961983
 30
0.0
  0
VERTEX
  5
158
  8
NEW_HOLES
 10
4.744600000005347
 20
3.876968501961983
 30
0.0
  0
VERTEX
  5
159
  8
NEW_HOLES
 10
4.130400000005347
 20
3.876968501961983
 30
0.0
  0
SEQEND
  5
223
  8
NEW_HOLES
  0
POLYLINE
  5
97
  8
NEW_HOLES
 66
     1
 10
0.0
 20
0.0
 30
0.0
 70
     1
  0
VERTEX
  5
15A
  8
NEW_HOLES
 10
3.380400000008334
 20
3.37303150196195
 30
0.0
  0
VERTEX
  5
15B
  8
NEW_HOLES
 10
3.994600000008333
 20
3.37303150196195
 30
0.0
  0
VERTEX
  5
15C
  8
NEW_HOLES
 10
3.994600000008333
 20
3.87696850196195
 30
0.0
  0
VERTEX
  5
15D
  8
NEW_HOLES
 10
3.380400000008334
 20
3.87696850196195
 30
0.0
  0
SEQEND
  5
224
  8
NEW_HOLES
  0
POLYLINE
  5
98
  8
NEW_HOLES
 66
     1
 10
0.0
 20
0.0
 30
0.0
 70
     1
  0
VERTEX
  5
15E
  8
NEW_HOLES
 10
2.630400000011328
 20
3.373031501961952
 30
0.0
  0
VERTEX
  5
15F
  8
NEW_HOLES
 10
3.244600000011328
 20
3.373031501961952
 30
0.0
  0
VERTEX
  5
160
  8
NEW_HOLES
 10
3.244600000011328
 20
3.876968501961952
 30
0.0
  0
VERTEX
  5
161
  8
NEW_HOLES
 10
2.630400000011328
 20
3.876968501961952
 30
0.0
  0
SEQEND
  5
225
  8
NEW_HOLES
  0
POLYLINE
  5
99
  8
NEW_HOLES
 66
     1
 10
0.0
 20
0.0
 30
0.0
 70
     1
  0
VERTEX
  5
162
  8
NEW_HOLES
 10
6.380399999996399
 20
3.373031501962026
 30
0.0
  0
VERTEX
  5
163
  8
NEW_HOLES
 10
6.994599999996399
 20
3.373031501962026
 30
0.0
  0
VERTEX
  5
164
  8
NEW_HOLES
 10
6.994599999996399
 20
3.876968501962025
 30
0.0
  0
VERTEX
  5
165
  8
NEW_HOLES
 10
6.380399999996399
 20
3.876968501962025
 30
0.0
  0
SEQEND
  5
226
  8
NEW_HOLES
  0
POLYLINE
  5
9A
  8
NEW_HOLES
 66
     1
 10
0.0
 20
0.0
 30
0.0
 70
     1
  0
VERTEX
  5
166
  8
NEW_HOLES
 10
5.630399999999387
 20
3.373031501961993
 30
0.0
  0
VERTEX
  5
167
  8
NEW_HOLES
 10
6.244599999999386
 20
3.373031501961993
 30
0.0
  0
VERTEX
  5
168
  8
NEW_HOLES
 10
6.244599999999386
 20
3.876968501961993
 30
0.0
  0
VERTEX
  5
169
  8
NEW_HOLES
 10
5.630399999999387
 20
3.876968501961993
 30
0.0
  0
SEQEND
  5
227
  8
NEW_HOLES
  0
POLYLINE
  5
9B
  8
NEW_HOLES
 66
     1
 10
0.0
 20
0.0
 30
0.0
 70
     1
  0
VERTEX
  5
16A
  8
NEW_HOLES
 10
4.880400000002381
 20
3.373031501961995
 30
0.0
  0
VERTEX
  5
16B
  8
NEW_HOLES
 10
5.494600000002381
 20
3.373031501961995
 30
0.0
  0
VERTEX
  5
16C
  8
NEW_HOLES
 10
5.494600000002381
 20
3.876968501961994
 30
0.0
  0
VERTEX
  5
16D
  8
NEW_HOLES
 10
4.880400000002381
 20
3.876968501961994
 30
0.0
  0
SEQEND
  5
228
  8
NEW_HOLES
  0
POLYLINE
  5
9C
  8
NEW_HOLES
 66
     1
 10
0.0
 20
0.0
 30
0.0
 70
     1
  0
VERTEX
  5
16E
  8
NEW_HOLES
 10
8.630399999987421
 20
3.373031501962019
 30
0.0
  0
VERTEX
  5
16F
  8
NEW_HOLES
 10
9.244599999987422
 20
3.373031501962019
 30
0.0
  0
VERTEX
  5
170
  8
NEW_HOLES
 10
9.244599999987422
 20
3.876968501962018
 30
0.0
  0
VERTEX
  5
171
  8
NEW_HOLES
 10
8.630399999987421
 20
3.876968501962018
 30
0.0
  0
SEQEND
  5
229
  8
NEW_HOLES
  0
POLYLINE
  5
9D
  8
NEW_HOLES
 66
     1
 10
0.0
 20
0.0
 30
0.0
 70
     1
  0
VERTEX
  5
172
  8
NEW_HOLES
 10
7.880399999990409
 20
3.373031501961986
 30
0.0
  0
VERTEX
  5
173
  8
NEW_HOLES
 10
8.49459999999041
 20
3.373031501961986
 30
0.0
  0
VERTEX
  5
174
  8
NEW_HOLES
 10
8.49459999999041
 20
3.876968501961986
 30
0.0
  0
VERTEX
  5
175
  8
NEW_HOLES
 10
7.880399999990409
 20
3.876968501961986
 30
0.0
  0
SEQEND
  5
22A
  8
NEW_HOLES
  0
POLYLINE
  5
9E
  8
NEW_HOLES
 66
     1
 10
0.0
 20
0.0
 30
0.0
 70
     1
  0
VERTEX
  5
176
  8
NEW_HOLES
 10
7.130399999993404
 20
3.373031501961988
 30
0.0
  0
VERTEX
  5
177
  8
NEW_HOLES
 10
7.744599999993405
 20
3.373031501961988
 30
0.0
  0
VERTEX
  5
178
  8
NEW_HOLES
 10
7.744599999993405
 20
3.876968501961987
 30
0.0
  0
VERTEX
  5
179
  8
NEW_HOLES
 10
7.130399999993404
 20
3.876968501961987
 30
0.0
  0
SEQEND
  5
22B
  8
NEW_HOLES
  0
POLYLINE
  5
9F
  8
NEW_HOLES
 66
     1
 10
0.0
 20
0.0
 30
0.0
 70
     1
  0
VERTEX
  5
17A
  8
NEW_HOLES
 10
9.380399999984187
 20
3.373031501961899
 30
0.0
  0
VERTEX
  5
17B
  8
NEW_HOLES
 10
9.994599999984187
 20
3.373031501961899
 30
0.0
  0
VERTEX
  5
17C
  8
NEW_HOLES
 10
9.994599999984187
 20
3.876968501961898
 30
0.0
  0
VERTEX
  5
17D
  8
NEW_HOLES
 10
9.380399999984187
 20
3.876968501961898
 30
0.0
  0
SEQEND
  5
22C
  8
NEW_HOLES
  0
POLYLINE
  5
A0
  8
NEW_HOLES
 66
     1
 10
0.0
 20
0.0
 30
0.0
 70
     1
  0
VERTEX
  5
17E
  8
NEW_HOLES
 10
10.31789999998049
 20
3.373031501961925
 30
0.0
  0
VERTEX
  5
17F
  8
NEW_HOLES
 10
10.93209999998049
 20
3.373031501961925
 30
0.0
  0
VERTEX
  5
180
  8
NEW_HOLES
 10
10.93209999998049
 20
3.876968501961924
 30
0.0
  0
VERTEX
  5
181
  8
NEW_HOLES
 10
10.31789999998049
 20
3.876968501961924
 30
0.0
  0
SEQEND
  5
22D
  8
NEW_HOLES
  0
POLYLINE
  5
A1
  8
NEW_HOLES
 66
     1
 10
0.0
 20
0.0
 30
0.0
 70
     1
  0
VERTEX
  5
182
  8
NEW_HOLES
 10
9.755399999982878
 20
0.3730315019739781
 30
0.0
  0
VERTEX
  5
183
  8
NEW_HOLES
 10
10.36959999998288
 20
0.3730315019739781
 30
0.0
  0
VERTEX
  5
184
  8
NEW_HOLES
 10
10.36959999998288
 20
0.8769685019739781
 30
0.0
  0
VERTEX
  5
185
  8
NEW_HOLES
 10
9.755399999982878
 20
0.8769685019739781
 30
0.0
  0
SEQEND
  5
22E
  8
NEW_HOLES
  0
POLYLINE
  5
A2
  8
NEW_HOLES
 66
     1
 10
0.0
 20
0.0
 30
0.0
 70
     1
  0
VERTEX
  5
186
  8
NEW_HOLES
 10
8.817899999986599
 20
0.3730315019739745
 30
0.0
  0
VERTEX
  5
187
  8
NEW_HOLES
 10
9.4320999999866
 20
0.3730315019739745
 30
0.0
  0
VERTEX
  5
188
  8
NEW_HOLES
 10
9.4320999999866
 20
0.8769685019739746
 30
0.0
  0
VERTEX
  5
189
  8
NEW_HOLES
 10
8.817899999986599
 20
0.8769685019739746
 30
0.0
  0
SEQEND
  5
22F
  8
NEW_HOLES
  0
POLYLINE
  5
A3
  8
NEW_HOLES
 66
     1
 10
0.0
 20
0.0
 30
0.0
 70
     1
  0
VERTEX
  5
18A
  8
NEW_HOLES
 10
5.442913385828096
 20
0.3730314980379736
 30
0.0
  0
VERTEX
  5
18B
  8
NEW_HOLES
 10
6.057113385828096
 20
0.3730314980379736
 30
0.0
  0
VERTEX
  5
18C
  8
NEW_HOLES
 10
6.057113385828096
 20
0.8769684980379737
 30
0.0
  0
VERTEX
  5
18D
  8
NEW_HOLES
 10
5.442913385828096
 20
0.8769684980379737
 30
0.0
  0
SEQEND
  5
230
  8
NEW_HOLES
  0
POLYLINE
  5
A4
  8
NEW_HOLES
 66
     1
 10
0.0
 20
0.0
 30
0.0
 70
     1
  0
VERTEX
  5
18E
  8
NEW_HOLES
 10
2.067900000013609
 20
0.3730315019739825
 30
0.0
  0
VERTEX
  5
18F
  8
NEW_HOLES
 10
2.682100000013609
 20
0.3730315019739825
 30
0.0
  0
VERTEX
  5
190
  8
NEW_HOLES
 10
2.682100000013609
 20
0.8769685019739826
 30
0.0
  0
VERTEX
  5
191
  8
NEW_HOLES
 10
2.067900000013609
 20
0.8769685019739826
 30
0.0
  0
SEQEND
  5
231
  8
NEW_HOLES
  0
POLYLINE
  5
A5
  8
NEW_HOLES
 66
     1
 10
0.0
 20
0.0
 30
0.0
 70
     1
  0
VERTEX
  5
192
  8
NEW_HOLES
 10
1.130400000017351
 20
0.3730315019739763
 30
0.0
  0
VERTEX
  5
193
  8
NEW_HOLES
 10
1.744600000017351
 20
0.3730315019739763
 30
0.0
  0
VERTEX
  5
194
  8
NEW_HOLES
 10
1.744600000017351
 20
0.8769685019739764
 30
0.0
  0
VERTEX
  5
195
  8
NEW_HOLES
 10
1.130400000017351
 20
0.8769685019739764
 30
0.0
  0
SEQEND
  5
232
  8
NEW_HOLES
  0
POLYLINE
  5
A6
  8
NEW_HOLES
 66
     1
 10
0.0
 20
0.0
 30
0.0
 70
     1
  0
VERTEX
  5
196
  8
NEW_HOLES
 10
6.994599999996399
 20
4.126968501962026
 30
0.0
 42
-0.0474120858242011
  0
VERTEX
  5
197
  8
NEW_HOLES
 10
7.041680547735451
 20
4.122429212201325
 30
0.0
  0
VERTEX
  5
198
  8
NEW_HOLES
 10
7.083319452254536
 20
4.122429212201325
 30
0.0
 42
-0.047412085825832
  0
VERTEX
  5
199
  8
NEW_HOLES
 10
7.130399999993404
 20
4.126968501961987
 30
0.0
  0
VERTEX
  5
19A
  8
NEW_HOLES
 10
7.744599999993405
 20
4.126968501961987
 30
0.0
 42
-0.0474120858228951
  0
VERTEX
  5
19B
  8
NEW_HOLES
 10
7.79168054773228
 20
4.122429212201325
 30
0.0
  0
VERTEX
  5
19C
  8
NEW_HOLES
 10
7.833319452251546
 20
4.122429212201325
 30
0.0
 42
-0.047412085825154
  0
VERTEX
  5
19D
  8
NEW_HOLES
 10
7.880399999990409
 20
4.126968501961986
 30
0.0
  0
VERTEX
  5
19E
  8
NEW_HOLES
 10
8.49459999999041
 20
4.126968501961986
 30
0.0
 42
-0.0474120858252961
  0
VERTEX
  5
19F
  8
NEW_HOLES
 10
8.541680547729271
 20
4.122429212201325
 30
0.0
  0
VERTEX
  5
1A0
  8
NEW_HOLES
 10
8.5833194522484
 20
4.122429212201325
 30
0.0
 42
-0.0474120858258521
  0
VERTEX
  5
1A1
  8
NEW_HOLES
 10
8.630399999987421
 20
4.126968501962019
 30
0.0
  0
VERTEX
  5
1A2
  8
NEW_HOLES
 10
9.244599999987422
 20
4.126968501962019
 30
0.0
 42
-0.0474120858248701
  0
VERTEX
  5
1A3
  8
NEW_HOLES
 10
9.291680547726443
 20
4.122429212201325
 30
0.0
  0
VERTEX
  5
1A4
  8
NEW_HOLES
 10
9.333319452245732
 20
4.122429212201325
 30
0.0
 42
-0.0474120858254128
  0
VERTEX
  5
1A5
  8
NEW_HOLES
 10
9.380399999984187
 20
4.126968501961898
 30
0.0
  0
VERTEX
  5
1A6
  8
NEW_HOLES
 10
9.994599999984187
 20
4.126968501961898
 30
0.0
 42
-0.0470855304099977
  0
VERTEX
  5
1A7
  8
NEW_HOLES
 10
10.041349796828
 20
4.122429212201325
 30
0.0
  0
VERTEX
  5
1A8
  8
NEW_HOLES
 10
10.27115020313651
 20
4.122429212201325
 30
0.0
 42
-0.0470855304110667
  0
VERTEX
  5
1A9
  8
NEW_HOLES
 10
10.31789999998049
 20
4.126968501961925
 30
0.0
  0
VERTEX
  5
1AA
  8
NEW_HOLES
 10
10.93209999998049
 20
4.126968501961925
 30
0.0
 42
-0.0457775530631344
  0
VERTEX
  5
1AB
  8
NEW_HOLES
 10
10.9781719612796
 20
4.122429212201325
 30
0.0
  0
VERTEX
  5
1AC
  8
NEW_HOLES
 10
10.99919453590158
 20
4.122429212201325
 30
0.0
  0
VERTEX
  5
1AD
  8
NEW_HOLES
 10
10.99919453590158
 20
4.117406971869449
 30
0.0
 42
-0.3365777034845805
  0
VERTEX
  5
1AE
  8
NEW_HOLES
 10
11.18209999998049
 20
3.876968501961925
 30
0.0
  0
VERTEX
  5
1AF
  8
NEW_HOLES
 10
11.18209999998049
 20
3.373031501961925
 30
0.0
  0
VERTEX
  5
1B0
  8
NEW_HOLES
 10
11.18206810493099
 20
3.369038194127694
 30
0.0
 42
-0.3420355068627199
  0
VERTEX
  5
1B1
  8
NEW_HOLES
 10
11.36959999997966
 20
3.1269685019649
 30
0.0
  0
VERTEX
  5
1B2
  8
NEW_HOLES
 10
11.36959999997966
 20
2.6230315019649
 30
0.0
 42
-0.414213562373095
  0
VERTEX
  5
1B3
  8
NEW_HOLES
 10
11.11959999997966
 20
2.3730315019649
 30
0.0
  0
VERTEX
  5
1B4
  8
NEW_HOLES
 10
11.08834999998096
 20
2.3730315019649
 30
0.0
  0
VERTEX
  5
1B5
  8
NEW_HOLES
 10
11.08834999998096
 20
1.873031501967963
 30
0.0
 42
-0.3420201286892531
  0
VERTEX
  5
1B6
  8
NEW_HOLES
 10
10.90083143571052
 20
1.630965250315297
 30
0.0
  0
VERTEX
  5
1B7
  8
NEW_HOLES
 10
10.90086338580972
 20
1.626968498034973
 30
0.0
  0
VERTEX
  5
1B8
  8
NEW_HOLES
 10
10.90086338580972
 20
1.123031498034973
 30
0.0
 42
-0.414213562373095
  0
VERTEX
  5
1B9
  8
NEW_HOLES
 10
10.65086338580972
 20
0.8730314980349734
 30
0.0
  0
VERTEX
  5
1BA
  8
NEW_HOLES
 10
10.61959999998288
 20
0.8730314980349738
 30
0.0
  0
VERTEX
  5
1BB
  8
NEW_HOLES
 10
10.61959999998288
 20
0.3730315019739781
 30
0.0
 42
-0.414213562373095
  0
VERTEX
  5
1BC
  8
NEW_HOLES
 10
10.36959999998288
 20
0.1230315019739781
 30
0.0
  0
VERTEX
  5
1BD
  8
NEW_HOLES
 10
9.4320999999866
 20
0.1230315019739745
 30
0.0
  0
VERTEX
  5
1BE
  8
NEW_HOLES
 10
8.81789999998653
 20
0.1230315019739781
 30
0.0
  0
VERTEX
  5
1BF
  8
NEW_HOLES
 10
6.057113462126661
 20
0.1230315019739781
 30
0.0
  0
VERTEX
  5
1C0
  8
NEW_HOLES
 10
6.057113385828096
 20
0.1230314980379736
 30
0.0
  0
VERTEX
  5
1C1
  8
NEW_HOLES
 10
5.442913385828096
 20
0.1230314980379736
 30
0.0
  0
VERTEX
  5
1C2
  8
NEW_HOLES
 10
5.442913309529531
 20
0.1230315019739781
 30
0.0
  0
VERTEX
  5
1C3
  8
NEW_HOLES
 10
1.744600000017351
 20
0.1230315019739763
 30
0.0
  0
VERTEX
  5
1C4
  8
NEW_HOLES
 10
1.130400000017351
 20
0.1230315019739763
 30
0.0
 42
-0.414213562373095
  0
VERTEX
  5
1C5
  8
NEW_HOLES
 10
0.8804000000173509
 20
0.3730315019739763
 30
0.0
  0
VERTEX
  5
1C6
  8
NEW_HOLES
 10
0.8804000000173509
 20
0.8730314980349734
 30
0.0
  0
VERTEX
  5
1C7
  8
NEW_HOLES
 10
0.8491633858464702
 20
0.8730314980349734
 30
0.0
 42
-0.414213562373095
  0
VERTEX
  5
1C8
  8
NEW_HOLES
 10
0.5991633858464702
 20
1.123031498034973
 30
0.0
  0
VERTEX
  5
1C9
  8
NEW_HOLES
 10
0.5991633858464702
 20
1.626968498034973
 30
0.0
  0
VERTEX
  5
1CA
  8
NEW_HOLES
 10
0.5991952260311435
 20
1.630958370030319
 30
0.0
 42
-0.3420508851758857
  0
VERTEX
  5
1CB
  8
NEW_HOLES
 10
0.4116500000192147
 20
1.873031501967961
 30
0.0
  0
VERTEX
  5
1CC
  8
NEW_HOLES
 10
0.4116500000192147
 20
2.376968501967961
 30
0.0
  0
VERTEX
  5
1CD
  8
NEW_HOLES
 10
0.4161780990464785
 20
2.424334585116468
 30
0.0
 42
-0.2337893988768114
  0
VERTEX
  5
1CE
  8
NEW_HOLES
 10
0.3179000000195966
 20
2.623031501964977
 30
0.0
  0
VERTEX
  5
1CF
  8
NEW_HOLES
 10
0.3179000000195966
 20
3.126968501964978
 30
0.0
  0
VERTEX
  5
1D0
  8
NEW_HOLES
 10
0.3179318950691017
 20
3.13096180979914
 30
0.0
 42
-0.3420355068628187
  0
VERTEX
  5
1D1
  8
NEW_HOLES
 10
0.1304000000203356
 20
3.373031501961958
 30
0.0
  0
VERTEX
  5
1D2
  8
NEW_HOLES
 10
0.1304000000203356
 20
3.876968501961959
 30
0.0
 42
-0.345952876994893
  0
VERTEX
  5
1D3
  8
NEW_HOLES
 10
0.3213984065565536
 20
4.119606047945934
 30
0.0
  0
VERTEX
  5
1D4
  8
NEW_HOLES
 10
0.3213984065565536
 20
4.122429212201325
 30
0.0
  0
VERTEX
  5
1D5
  8
NEW_HOLES
 10
0.3343280387210186
 20
4.122429212201325
 30
0.0
 42
-0.0457775530628954
  0
VERTEX
  5
1D6
  8
NEW_HOLES
 10
0.3804000000203356
 20
4.126968501961959
 30
0.0
  0
VERTEX
  5
1D7
  8
NEW_HOLES
 10
0.9946000000203354
 20
4.126968501961959
 30
0.0
 42
-0.0474120858244029
  0
VERTEX
  5
1D8
  8
NEW_HOLES
 10
1.041680547759088
 20
4.122429212201325
 30
0.0
  0
VERTEX
  5
1D9
  8
NEW_HOLES
 10
1.083319452278599
 20
4.122429212201325
 30
0.0
 42
-0.0474120858248576
  0
VERTEX
  5
1DA
  8
NEW_HOLES
 10
1.130400000017341
 20
4.126968501961957
 30
0.0
  0
VERTEX
  5
1DB
  8
NEW_HOLES
 10
1.744600000017341
 20
4.126968501961957
 30
0.0
 42
-0.0474120858241581
  0
VERTEX
  5
1DC
  8
NEW_HOLES
 10
1.791680547756076
 20
4.122429212201325
 30
0.0
  0
VERTEX
  5
1DD
  8
NEW_HOLES
 10
1.833319452275468
 20
4.122429212201325
 30
0.0
 42
-0.0474120858247773
  0
VERTEX
  5
1DE
  8
NEW_HOLES
 10
1.880400000014355
 20
4.126968501961989
 30
0.0
  0
VERTEX
  5
1DF
  8
NEW_HOLES
 10
2.494600000014355
 20
4.126968501961989
 30
0.0
 42
-0.0474120858246899
  0
VERTEX
  5
1E0
  8
NEW_HOLES
 10
2.541680547753245
 20
4.122429212201325
 30
0.0
  0
VERTEX
  5
1E1
  8
NEW_HOLES
 10
2.583319452272615
 20
4.122429212201325
 30
0.0
 42
-0.0474120858244402
  0
VERTEX
  5
1E2
  8
NEW_HOLES
 10
2.630400000011328
 20
4.126968501961952
 30
0.0
  0
VERTEX
  5
1E3
  8
NEW_HOLES
 10
3.244600000011328
 20
4.126968501961952
 30
0.0
 42
-0.0474120858244011
  0
VERTEX
  5
1E4
  8
NEW_HOLES
 10
3.29168054775005
 20
4.122429212201325
 30
0.0
  0
VERTEX
  5
1E5
  8
NEW_HOLES
 10
3.333319452269623
 20
4.122429212201325
 30
0.0
 42
-0.0474120858242578
  0
VERTEX
  5
1E6
  8
NEW_HOLES
 10
3.380400000008334
 20
4.12696850196195
 30
0.0
  0
VERTEX
  5
1E7
  8
NEW_HOLES
 10
3.994600000008333
 20
4.12696850196195
 30
0.0
 42
-0.0474120858249161
  0
VERTEX
  5
1E8
  8
NEW_HOLES
 10
4.041680547747044
 20
4.122429212201325
 30
0.0
  0
VERTEX
  5
1E9
  8
NEW_HOLES
 10
4.083319452266477
 20
4.122429212201325
 30
0.0
 42
-0.0474120858244512
  0
VERTEX
  5
1EA
  8
NEW_HOLES
 10
4.130400000005347
 20
4.126968501961984
 30
0.0
  0
VERTEX
  5
1EB
  8
NEW_HOLES
 10
4.744600000005347
 20
4.126968501961984
 30
0.0
 42
-0.0474120858239916
  0
VERTEX
  5
1EC
  8
NEW_HOLES
 10
4.791680547744202
 20
4.122429212201325
 30
0.0
  0
VERTEX
  5
1ED
  8
NEW_HOLES
 10
4.833319452263476
 20
4.122429212201325
 30
0.0
 42
-0.0474120858245324
  0
VERTEX
  5
1EE
  8
NEW_HOLES
 10
4.880400000002382
 20
4.126968501961994
 30
0.0
  0
VERTEX
  5
1EF
  8
NEW_HOLES
 10
5.494600000002382
 20
4.126968501961994
 30
0.0
 42
-0.0474120858254914
  0
VERTEX
  5
1F0
  8
NEW_HOLES
 10
5.541680547741286
 20
4.122429212201325
 30
0.0
  0
VERTEX
  5
1F1
  8
NEW_HOLES
 10
5.583319452260493
 20
4.122429212201325
 30
0.0
 42
-0.0474120858244794
  0
VERTEX
  5
1F2
  8
NEW_HOLES
 10
5.630399999999387
 20
4.126968501961993
 30
0.0
  0
VERTEX
  5
1F3
  8
NEW_HOLES
 10
6.244599999999387
 20
4.126968501961993
 30
0.0
 42
-0.0474120858239735
  0
VERTEX
  5
1F4
  8
NEW_HOLES
 10
6.291680547738279
 20
4.122429212201325
 30
0.0
  0
VERTEX
  5
1F5
  8
NEW_HOLES
 10
6.333319452257347
 20
4.122429212201325
 30
0.0
 42
-0.0474120858241557
  0
VERTEX
  5
1F6
  8
NEW_HOLES
 10
6.380399999996399
 20
4.126968501962026
 30
0.0
  0
SEQEND
  5
233
  8
NEW_HOLES
  0
ENDSEC
  0
EOF
